<svg width="77" height="11" xmlns="http://www.w3.org/2000/svg"><g fill="none" fill-rule="evenodd"><path d="M61.82 6.33h-3.04l1.1-6.19h-1.59c-.1 0-.2.08-.21.19L56.7 8.06h4.62c.1 0 .2-.08.22-.19l.27-1.54zM69.74.14l-.96 5.42c-.33 1.81-1.52 2.64-3.28 2.64-1.83 0-2.86-1.33-2.57-2.93l.88-4.94c.01-.1.1-.19.21-.19h1.58l-.93 5.28c-.12.64.37 1.16 1.02 1.16s1.2-.4 1.34-1.15l.9-5.1c.02-.1.12-.19.22-.19h1.59zm-19.7 4.6h-1.57c-.1 0-.2.08-.22.18L48 6.33h1.76l-.3 1.73h1.58c.1 0 .2-.08.22-.19l.27-1.54h1.08c2 0 3.25-1.13 3.57-2.88.36-1.96-.73-3.3-2.81-3.3h-2.32c-.11 0-.2.07-.22.18l-.25 1.4h2.7c.94 0 1.42.54 1.25 1.56-.15.93-.9 1.45-1.85 1.45h-.87l.3-1.72h-1.57c-.11 0-.2.07-.22.18l-.27 1.54zm20.72 1c.67.56 1.32.83 2 .83.65 0 1.21-.25 1.3-.77.1-.55-.48-.78-1.3-1-1.19-.35-2.27-1.08-2-2.65.27-1.55 1.58-2.17 3-2.15.99.02 1.9.26 2.83 1L75.5 2.24a3.3 3.3 0 00-1.95-.65c-.6 0-.98.3-1.07.73-.08.54.38.72 1.1.93 1 .31 2.62.88 2.25 2.75-.35 1.72-1.82 2.2-3.27 2.2a4.12 4.12 0 01-2.91-1.19l1.1-1.27z" fill="#FF6900"/><path fill="#1A1A1A" d="M.5 10h75v1H.5z"/><path d="M3.44 8c.54 0 .96-.06 1.28-.16.43-.13.77-.32 1.02-.57.33-.32.58-.74.76-1.26.15-.43.22-.94.22-1.53 0-.67-.07-1.23-.23-1.69a3.13 3.13 0 00-.68-1.16A2.4 2.4 0 004.73.97C4.4.88 3.96.84 3.36.84H.72v7.15h2.72zm-.2-1.21H2.18V2.05h.65c.59 0 .98.02 1.18.06.27.06.5.18.67.34.18.17.32.4.41.7.1.3.15.72.15 1.27s-.05.99-.15 1.31c-.1.32-.22.55-.38.7-.15.13-.34.23-.58.29-.18.04-.47.07-.87.07zm6.9-4.62L11.48.71H9.94l-.67 1.46h.87zm-.09 5.94c.57 0 1.05-.13 1.43-.4.38-.25.65-.64.83-1.14l-1.37-.23c-.07.26-.18.45-.33.57a.84.84 0 01-.54.18c-.32 0-.58-.12-.8-.34a1.39 1.39 0 01-.32-.95h3.43c.02-1.05-.2-1.84-.64-2.34a2.3 2.3 0 00-1.82-.77c-.69 0-1.26.24-1.7.73a2.86 2.86 0 00-.68 2.02c0 .72.17 1.32.51 1.79.43.59 1.1.88 2 .88zm.97-3.15H8.97c0-.38.1-.67.29-.9.2-.21.44-.32.74-.32.28 0 .52.1.71.31.2.2.3.51.31.9zM15.7 8.1c.67 0 1.2-.16 1.6-.47.4-.32.66-.79.8-1.4L16.74 6c-.07.36-.18.61-.35.76a.92.92 0 01-.64.22c-.35 0-.62-.12-.83-.38-.2-.25-.31-.69-.31-1.3 0-.56.1-.95.3-1.19.2-.23.48-.35.82-.35.26 0 .47.07.63.2.16.14.26.35.31.62l1.35-.25a2.26 2.26 0 00-.8-1.24 2.5 2.5 0 00-1.5-.4c-.78 0-1.4.23-1.84.7a2.79 2.79 0 00-.68 2c0 .85.22 1.51.67 2 .46.47 1.06.71 1.82.71zm5.74 0c.76 0 1.4-.26 1.9-.77.51-.52.77-1.17.77-1.95s-.25-1.43-.76-1.93c-.5-.51-1.14-.77-1.92-.77-.51 0-.97.11-1.38.34-.42.22-.73.55-.96.97a3.15 3.15 0 000 2.84c.23.42.55.73.99.95.43.21.88.32 1.36.32zm0-1.12c-.37 0-.67-.13-.91-.4-.25-.28-.37-.67-.37-1.19 0-.51.12-.9.37-1.18.24-.27.54-.41.9-.41s.66.14.9.4c.24.28.37.67.37 1.18 0 .52-.13.92-.37 1.2-.24.27-.54.4-.9.4zm5.44 1.12a2.09 2.09 0 001.71-.9V8h1.28V2.81h-1.37V5c0 .74-.04 1.2-.1 1.4a1.08 1.08 0 01-1.01.67.85.85 0 01-.51-.15.73.73 0 01-.28-.39 6.6 6.6 0 01-.08-1.34V2.81h-1.37v3.28c0 .49.06.87.19 1.15.12.27.32.49.6.64.27.15.59.23.94.23zM33.94 8L36 2.81H34.6l-.99 2.64a11.58 11.58 0 00-.28.89l-.29-.89-.97-2.64h-1.44l2.09 5.18h1.23zm4.21 0V6.4c0-.88.04-1.46.12-1.74.08-.27.18-.46.31-.57.14-.1.3-.16.5-.16s.4.08.64.23l.42-1.2c-.29-.17-.59-.26-.9-.26-.22 0-.42.06-.6.17-.17.1-.37.34-.58.69V2.8h-1.28v5.18h1.37zm3.95-5.88V.84h-1.37V2.1h1.37zm0 5.88V2.81h-1.37v5.18h1.37zm2.72 0V6.4c0-.88.04-1.46.12-1.74.08-.27.18-.46.31-.57.14-.1.3-.16.5-.16s.4.08.64.23l.42-1.2c-.29-.17-.59-.26-.9-.26-.22 0-.42.06-.6.17-.17.1-.37.34-.58.69V2.8h-1.28v5.18h1.37z" fill="#1A1A1A" fill-rule="nonzero"/></g></svg>